<svg width="49" height="48" viewBox="0 0 49 48" fill="none" xmlns="http://www.w3.org/2000/svg">
<path d="M45.2272 7.93949L40.7272 3.43948C40.4459 3.15828 40.0644 3.00031 39.6667 3.00031C39.269 3.00031 38.8875 3.15828 38.6062 3.43948L30.0457 12H26.3092C22.8886 12.002 19.553 13.0661 16.7631 15.0453C13.9733 17.0245 11.8668 19.8212 10.7347 23.049L3.7507 43.005C3.65735 43.2716 3.6412 43.5592 3.70409 43.8346C3.76698 44.11 3.90637 44.362 4.1062 44.5617C4.30603 44.7614 4.55819 44.9006 4.83364 44.9632C5.10909 45.0259 5.39664 45.0095 5.6632 44.916L25.6177 37.932C28.8455 36.7999 31.6422 34.6934 33.6214 31.9035C35.6006 29.1137 36.6647 25.7781 36.6667 22.3575V18.6225L45.2272 10.0605C45.5084 9.77919 45.6664 9.39773 45.6664 8.99998C45.6664 8.60224 45.5084 8.22078 45.2272 7.93949ZM34.1062 16.9395C33.8249 17.2207 33.6668 17.6022 33.6667 18V22.3575C33.6646 25.1561 32.7937 27.885 31.1743 30.1675C29.555 32.45 27.267 34.1734 24.6262 35.1L10.8742 39.9135L24.6667 26.121L22.5457 24L8.7517 37.7925L13.5667 24.0405C14.4932 21.3997 16.2167 19.1117 18.4992 17.4924C20.7817 15.873 23.5106 15.0021 26.3092 15H30.6667C31.0645 14.9999 31.446 14.8418 31.7272 14.5605L39.6667 6.62098L42.0457 8.99998L34.1062 16.9395Z" fill="white" fill-opacity="0.2"/>
</svg>
