<svg width="24" height="24" viewBox="0 0 24 24" fill="none" xmlns="http://www.w3.org/2000/svg">
<path d="M16.8045 8.2755C17.401 8.2755 17.8845 7.79197 17.8845 7.1955C17.8845 6.59903 17.401 6.1155 16.8045 6.1155C16.208 6.1155 15.7245 6.59903 15.7245 7.1955C15.7245 7.79197 16.208 8.2755 16.8045 8.2755Z" fill="white"/>
<path d="M12 7.3785C11.0859 7.3785 10.1924 7.64955 9.43241 8.15736C8.67241 8.66518 8.08006 9.38696 7.73027 10.2314C7.38048 11.0759 7.28896 12.0051 7.46728 12.9016C7.6456 13.7981 8.08576 14.6216 8.73209 15.2679C9.37842 15.9142 10.2019 16.3544 11.0984 16.5327C11.9949 16.711 12.9241 16.6195 13.7686 16.2697C14.613 15.9199 15.3348 15.3276 15.8426 14.5676C16.3504 13.8076 16.6215 12.914 16.6215 12C16.6217 11.393 16.5023 10.792 16.2701 10.2312C16.0379 9.6704 15.6975 9.16085 15.2683 8.73167C14.8391 8.30248 14.3296 7.96207 13.7688 7.72989C13.208 7.49771 12.6069 7.37831 12 7.3785ZM12 15C11.4066 15 10.8266 14.8241 10.3333 14.4944C9.83992 14.1648 9.45541 13.6962 9.22834 13.1481C9.00128 12.5999 8.94187 11.9967 9.05763 11.4147C9.17338 10.8328 9.4591 10.2982 9.87866 9.87868C10.2982 9.45912 10.8328 9.1734 11.4147 9.05765C11.9967 8.94189 12.5999 9.0013 13.148 9.22836C13.6962 9.45543 14.1647 9.83994 14.4944 10.3333C14.824 10.8266 15 11.4067 15 12C15 12.7957 14.6839 13.5587 14.1213 14.1213C13.5587 14.6839 12.7956 15 12 15Z" fill="white"/>
<path d="M12 4.6215C14.403 4.6215 14.688 4.6305 15.6368 4.674C16.2074 4.68015 16.7728 4.78494 17.3077 4.98375C17.6959 5.13372 18.0484 5.36318 18.3426 5.65741C18.6368 5.95163 18.8663 6.30412 19.0163 6.69225C19.2151 7.22723 19.3199 7.79256 19.326 8.36325C19.3695 9.312 19.3785 9.597 19.3785 12.0007C19.3785 14.4045 19.3695 14.688 19.326 15.6368C19.3199 16.2074 19.2151 16.7728 19.0163 17.3077C18.8663 17.6959 18.6368 18.0484 18.3426 18.3426C18.0484 18.6368 17.6959 18.8663 17.3077 19.0163C16.7728 19.2151 16.2074 19.3199 15.6368 19.326C14.688 19.3695 14.403 19.3785 12 19.3785C9.597 19.3785 9.312 19.3695 8.36325 19.326C7.79256 19.3199 7.22723 19.2151 6.69225 19.0163C6.30412 18.8663 5.95163 18.6368 5.65741 18.3426C5.36318 18.0484 5.13372 17.6959 4.98375 17.3077C4.78494 16.7728 4.68015 16.2074 4.674 15.6368C4.6305 14.688 4.6215 14.403 4.6215 12C4.6215 9.597 4.6305 9.312 4.674 8.36325C4.68015 7.79256 4.78494 7.22723 4.98375 6.69225C5.13372 6.30412 5.36318 5.95163 5.65741 5.65741C5.95163 5.36318 6.30412 5.13372 6.69225 4.98375C7.22723 4.78494 7.79256 4.68015 8.36325 4.674C9.312 4.6305 9.597 4.6215 12 4.6215ZM12 3C9.55575 3 9.249 3.0105 8.289 3.054C7.54257 3.06897 6.80409 3.21048 6.105 3.4725C5.50714 3.70388 4.96417 4.05755 4.51086 4.51086C4.05755 4.96417 3.70388 5.50714 3.4725 6.105C3.2104 6.80433 3.06889 7.54307 3.054 8.28975C3.0105 9.24975 3 9.555 3 12C3 14.445 3.0105 14.751 3.054 15.711C3.06897 16.4574 3.21048 17.1959 3.4725 17.895C3.70388 18.4929 4.05755 19.0358 4.51086 19.4891C4.96417 19.9424 5.50714 20.2961 6.105 20.5275C6.80433 20.7896 7.54307 20.9311 8.28975 20.946C9.24975 20.9895 9.55575 21 12 21C14.4443 21 14.751 20.9895 15.711 20.946C16.4577 20.9311 17.1964 20.7896 17.8958 20.5275C18.4936 20.2961 19.0366 19.9424 19.4899 19.4891C19.9432 19.0358 20.2969 18.4929 20.5282 17.895C20.7901 17.1956 20.9314 16.4569 20.946 15.7103C20.9895 14.7503 21 14.445 21 12C21 9.555 20.9895 9.249 20.946 8.289C20.931 7.54257 20.7895 6.80409 20.5275 6.105C20.2961 5.50714 19.9424 4.96417 19.4891 4.51086C19.0358 4.05755 18.4929 3.70388 17.895 3.4725C17.1956 3.21065 16.4569 3.0694 15.7103 3.05475C14.7503 3.00975 14.445 3 12 3Z" fill="white"/>
</svg>
