<svg width="48" height="48" viewBox="0 0 48 48" fill="none" xmlns="http://www.w3.org/2000/svg">
<path d="M15 21C16.6569 21 18 19.6569 18 18C18 16.3431 16.6569 15 15 15C13.3431 15 12 16.3431 12 18C12 19.6569 13.3431 21 15 21Z" fill="white" fill-opacity="0.2"/>
<path d="M24 16.5C25.6569 16.5 27 15.1569 27 13.5C27 11.8431 25.6569 10.5 24 10.5C22.3431 10.5 21 11.8431 21 13.5C21 15.1569 22.3431 16.5 24 16.5Z" fill="white" fill-opacity="0.2"/>
<path d="M33 21C34.6569 21 36 19.6569 36 18C36 16.3431 34.6569 15 33 15C31.3431 15 30 16.3431 30 18C30 19.6569 31.3431 21 33 21Z" fill="white" fill-opacity="0.2"/>
<path d="M34.5 30C36.1569 30 37.5 28.6569 37.5 27C37.5 25.3431 36.1569 24 34.5 24C32.8431 24 31.5 25.3431 31.5 27C31.5 28.6569 32.8431 30 34.5 30Z" fill="white" fill-opacity="0.2"/>
<path d="M28.5 37.5C30.1569 37.5 31.5 36.1569 31.5 34.5C31.5 32.8431 30.1569 31.5 28.5 31.5C26.8431 31.5 25.5 32.8431 25.5 34.5C25.5 36.1569 26.8431 37.5 28.5 37.5Z" fill="white" fill-opacity="0.2"/>
<path d="M24.81 3C21.9848 2.89095 19.1668 3.3535 16.5247 4.35991C13.8826 5.36632 11.471 6.89588 9.43432 8.85688C7.39769 10.8179 5.778 13.1699 4.67236 15.7721C3.56672 18.3742 2.9979 21.1727 3.00001 24C2.99993 25.112 3.25635 26.209 3.74932 27.2057C4.2423 28.2025 4.95854 29.0721 5.84235 29.7469C6.72615 30.4217 7.75371 30.8836 8.8451 31.0966C9.9365 31.3096 11.0623 31.268 12.135 30.975L13.815 30.51C14.4833 30.3276 15.1847 30.3019 15.8646 30.435C16.5445 30.5681 17.1844 30.8564 17.7346 31.2774C18.2848 31.6983 18.7303 32.2407 19.0365 32.8621C19.3428 33.4835 19.5014 34.1672 19.5 34.86V40.5C19.5 41.6935 19.9741 42.8381 20.818 43.682C21.6619 44.5259 22.8065 45 24 45C26.8273 45.0021 29.6258 44.4333 32.228 43.3277C34.8301 42.222 37.1821 40.6023 39.1431 38.5657C41.1041 36.529 42.6337 34.1174 43.6401 31.4753C44.6465 28.8333 45.1091 26.0152 45 23.19C44.7824 17.905 42.5854 12.8951 38.8451 9.15488C35.1049 5.41466 30.095 3.21764 24.81 3ZM36.975 36.465C35.3001 38.2186 33.2863 39.6134 31.0559 40.5649C28.8255 41.5164 26.4249 42.0046 24 42C23.6022 42 23.2206 41.842 22.9393 41.5607C22.658 41.2794 22.5 40.8978 22.5 40.5V34.86C22.5 32.8709 21.7098 30.9632 20.3033 29.5567C18.8968 28.1502 16.9891 27.36 15 27.36C14.3259 27.3599 13.6549 27.4508 13.005 27.63L11.325 28.095C10.6975 28.2632 10.0397 28.2846 9.40267 28.1575C8.76559 28.0304 8.16634 27.7584 7.65138 27.3623C7.13642 26.9663 6.71958 26.457 6.4332 25.8739C6.14683 25.2908 5.99859 24.6496 6.00001 24C5.99815 21.5757 6.48603 19.176 7.43438 16.9449C8.38273 14.7138 9.772 12.6972 11.5188 11.0162C13.2657 9.33519 15.3341 8.02437 17.6 7.1624C19.8659 6.30042 22.2826 5.90505 24.705 6C29.2158 6.23494 33.4796 8.1325 36.6736 11.3264C39.8675 14.5204 41.7651 18.7842 42 23.295C42.1024 25.7189 41.7096 28.1381 40.8456 30.4051C39.9816 32.6721 38.6646 34.7391 36.975 36.48V36.465Z" fill="white" fill-opacity="0.2"/>
</svg>
