<svg width="16" height="17" viewBox="0 0 16 17" fill="none" xmlns="http://www.w3.org/2000/svg">
<path d="M13 14.9204H12.915C3.09 14.3554 1.695 6.06541 1.5 3.53541C1.48429 3.3387 1.50755 3.14082 1.56844 2.95312C1.62933 2.76541 1.72666 2.59156 1.85486 2.44154C1.98306 2.29151 2.13959 2.16825 2.31551 2.07883C2.49142 1.98941 2.68325 1.93557 2.88 1.92041H5.635C5.83528 1.92022 6.031 1.98017 6.19682 2.09249C6.36263 2.20482 6.4909 2.36435 6.565 2.55041L7.325 4.42041C7.39818 4.60218 7.41634 4.80145 7.37722 4.99346C7.33811 5.18546 7.24345 5.36175 7.105 5.50041L6.04 6.57541C6.20636 7.52078 6.65909 8.39224 7.33695 9.07189C8.01481 9.75153 8.88507 10.2066 9.83 10.3754L10.915 9.30041C11.0557 9.16349 11.2337 9.07104 11.4266 9.03458C11.6196 8.99812 11.819 9.01928 12 9.09541L13.885 9.85041C14.0683 9.92685 14.2246 10.0561 14.3341 10.2217C14.4437 10.3874 14.5014 10.5819 14.5 10.7804V13.4204C14.5 13.8182 14.342 14.1998 14.0607 14.4811C13.7794 14.7624 13.3978 14.9204 13 14.9204ZM3 2.92041C2.86739 2.92041 2.74022 2.97309 2.64645 3.06686C2.55268 3.16063 2.5 3.2878 2.5 3.42041V3.46041C2.73 6.42041 4.205 13.4204 12.97 13.9204C13.0357 13.9245 13.1015 13.9155 13.1638 13.8941C13.226 13.8726 13.2833 13.8391 13.3326 13.7955C13.3818 13.7518 13.422 13.6988 13.4507 13.6396C13.4794 13.5804 13.4962 13.5161 13.5 13.4504V10.7804L11.615 10.0254L10.18 11.4504L9.94 11.4204C5.59 10.8754 5 6.52541 5 6.48041L4.97 6.24041L6.39 4.80541L5.64 2.92041H3Z" fill="white"/>
</svg>
