<svg width="17" height="16" viewBox="0 0 17 16" fill="none" xmlns="http://www.w3.org/2000/svg">
<path d="M10 7C10.2967 7 10.5867 6.91203 10.8334 6.74721C11.08 6.58238 11.2723 6.34811 11.3858 6.07403C11.4994 5.79994 11.5291 5.49834 11.4712 5.20737C11.4133 4.91639 11.2704 4.64912 11.0607 4.43934C10.8509 4.22956 10.5836 4.0867 10.2926 4.02882C10.0017 3.97094 9.70006 4.00065 9.42597 4.11418C9.15189 4.22771 8.91762 4.41997 8.7528 4.66665C8.58797 4.91332 8.5 5.20333 8.5 5.5C8.5 5.89783 8.65804 6.27936 8.93934 6.56066C9.22064 6.84197 9.60218 7 10 7ZM10 5C10.0989 5 10.1956 5.02933 10.2778 5.08427C10.36 5.13921 10.4241 5.2173 10.4619 5.30866C10.4998 5.40002 10.5097 5.50056 10.4904 5.59755C10.4711 5.69454 10.4235 5.78363 10.3536 5.85355C10.2836 5.92348 10.1945 5.9711 10.0975 5.99039C10.0006 6.00969 9.90002 5.99978 9.80866 5.96194C9.7173 5.9241 9.63921 5.86001 9.58426 5.77779C9.52932 5.69556 9.5 5.59889 9.5 5.5C9.5 5.36739 9.55268 5.24022 9.64645 5.14645C9.74021 5.05268 9.86739 5 10 5Z" fill="white"/>
<path d="M13.5 2H3.5C3.23478 2 2.98043 2.10536 2.79289 2.29289C2.60536 2.48043 2.5 2.73478 2.5 3V13C2.5 13.2652 2.60536 13.5196 2.79289 13.7071C2.98043 13.8946 3.23478 14 3.5 14H13.5C13.7652 14 14.0196 13.8946 14.2071 13.7071C14.3946 13.5196 14.5 13.2652 14.5 13V3C14.5 2.73478 14.3946 2.48043 14.2071 2.29289C14.0196 2.10536 13.7652 2 13.5 2ZM13.5 13H3.5V10L6 7.5L8.795 10.295C8.98236 10.4813 9.23581 10.5858 9.5 10.5858C9.76419 10.5858 10.0176 10.4813 10.205 10.295L11 9.5L13.5 12V13ZM13.5 10.585L11.705 8.79C11.5176 8.60375 11.2642 8.49921 11 8.49921C10.7358 8.49921 10.4824 8.60375 10.295 8.79L9.5 9.585L6.705 6.79C6.51764 6.60375 6.26419 6.49921 6 6.49921C5.73581 6.49921 5.48236 6.60375 5.295 6.79L3.5 8.585V3H13.5V10.585Z" fill="white"/>
</svg>
