<svg width="49" height="48" viewBox="0 0 49 48" fill="none" xmlns="http://www.w3.org/2000/svg">
<path d="M28.8334 42H19.8334C19.0377 42 18.2747 41.6839 17.7121 41.1213C17.1494 40.5587 16.8334 39.7957 16.8334 39V31.5H9.33337C8.53772 31.5 7.77466 31.1839 7.21205 30.6213C6.64944 30.0587 6.33337 29.2956 6.33337 28.5V19.5C6.33337 18.7044 6.64944 17.9413 7.21205 17.3787C7.77466 16.8161 8.53772 16.5 9.33337 16.5H16.8334V9C16.8334 8.20435 17.1494 7.44129 17.7121 6.87868C18.2747 6.31607 19.0377 6 19.8334 6H28.8334C29.629 6 30.3921 6.31607 30.9547 6.87868C31.5173 7.44129 31.8334 8.20435 31.8334 9V16.5H39.3334C40.129 16.5 40.8921 16.8161 41.4547 17.3787C42.0173 17.9413 42.3334 18.7044 42.3334 19.5V28.5C42.3322 29.2953 42.0157 30.0577 41.4534 30.62C40.891 31.1824 40.1287 31.4988 39.3334 31.5H31.8334V39C31.8322 39.7953 31.5157 40.5577 30.9534 41.12C30.391 41.6824 29.6287 41.9988 28.8334 42ZM9.33337 19.5V28.5H19.8334V39H28.8334V28.5H39.3334V19.5H28.8334V9H19.8334V19.5H9.33337Z" fill="white" fill-opacity="0.2"/>
</svg>
