<svg width="16" height="17" viewBox="0 0 16 17" fill="none" xmlns="http://www.w3.org/2000/svg">
<path d="M8 12.4204L4.955 8.12041C4.45659 7.53194 4.13562 6.81399 4.02948 6.05016C3.92333 5.28632 4.03638 4.50805 4.35545 3.80599C4.67453 3.10392 5.18649 2.50695 5.83173 2.08461C6.47697 1.66226 7.22892 1.43192 8 1.42041C9.06887 1.43097 10.09 1.86471 10.8397 2.62662C11.5894 3.38853 12.0067 4.41651 12 5.48541C12.0004 6.41788 11.683 7.32263 11.1 8.05041L8 12.4204ZM8 2.42041C7.19593 2.42964 6.42838 2.7576 5.86591 3.33226C5.30343 3.90693 4.992 4.68132 5 5.48541C5.00378 6.21924 5.26777 6.92794 5.745 7.48541L8 10.6804L10.315 7.42041C10.755 6.87113 10.9965 6.18921 11 5.48541C11.008 4.68132 10.6966 3.90693 10.1341 3.33226C9.57162 2.7576 8.80407 2.42964 8 2.42041Z" fill="white"/>
<path d="M8 5.92041C8.55228 5.92041 9 5.47269 9 4.92041C9 4.36813 8.55228 3.92041 8 3.92041C7.44772 3.92041 7 4.36813 7 4.92041C7 5.47269 7.44772 5.92041 8 5.92041Z" fill="white"/>
<path d="M14 6.42041H13V7.42041H14V14.4204H2V7.42041H3V6.42041H2C1.73478 6.42041 1.48043 6.52577 1.29289 6.7133C1.10536 6.90084 1 7.15519 1 7.42041V14.4204C1 14.6856 1.10536 14.94 1.29289 15.1275C1.48043 15.3151 1.73478 15.4204 2 15.4204H14C14.2652 15.4204 14.5196 15.3151 14.7071 15.1275C14.8946 14.94 15 14.6856 15 14.4204V7.42041C15 7.15519 14.8946 6.90084 14.7071 6.7133C14.5196 6.52577 14.2652 6.42041 14 6.42041Z" fill="white"/>
</svg>
